# xmcd CD database file
#
# Track frame offsets:
#	150
#	16785
#	34467
#	51625
#	72962
#	90205
#	107247
#	126167
#	143492
#	161175
#	179112
#	197075
#	215762
#	235087
#	254285
#
# Disc length: 3749 seconds
#
# Revision: 3
# Processed by: cddbd v1.5.1PL2 Copyright (c) Steve Scherf et al.
# Submitted via: CDex 1.51
#
DISCID=de0ea30f
DTITLE=シカゴ - ハート・オブ・シカゴ 1982-1997
DYEAR=1997
DGENRE=Rock
TTITLE0=素直になれなくて
TTITLE1=ラヴ・ミー・トゥモロウ
TTITLE2=ステイ・ザ・ナイト
TTITLE3=忘れ得ぬ君に
TTITLE4=君こそすべて
TTITLE5=いかした彼女
TTITLE6=スティル・ラヴ・ミー
TTITLE7=フェイスフル
TTITLE8=リヴ・ウィズアウト・ユア・ラヴ
TTITLE9=ルック・アウェイ
TTITLE10=ユーアー・ノット・アローン
TTITLE11=ホワット・カインド・オブ・マン
TTITLE12=チェイシン・ザ・ウィンド
TTITLE13=ヒア・イン・マイ・ハート
TTITLE14=オンリー・ワン
EXTD=YEAR: 1997
EXTT0=
EXTT1=
EXTT2=
EXTT3=
EXTT4=
EXTT5=
EXTT6=
EXTT7=
EXTT8=
EXTT9=
EXTT10=
EXTT11=
EXTT12=
EXTT13=
EXTT14=
PLAYORDER=
